HIERARCHY
ROOT Hips
{
	OFFSET	0.00	0.00	0.00
	CHANNELS 6 Xposition Yposition Zposition Zrotation Xrotation Yrotation
	JOINT LeftUpLeg
	{
		OFFSET	 0.126116	-0.014019	-0.065224
		CHANNELS 3 Zrotation Xrotation Yrotation
		JOINT LeftLeg
		{
			OFFSET	 0.000000	 0.000000	 0.569914
			CHANNELS 3 Zrotation Xrotation Yrotation
			JOINT LeftFoot
			{
				OFFSET	 0.000000	 0.000000	 0.544423
				CHANNELS 3 Zrotation Xrotation Yrotation
				JOINT LeftToeBase
				{
					OFFSET	 0.000000	 0.000000	 0.207117
					CHANNELS 3 Zrotation Xrotation Yrotation
					End Site
					{
						OFFSET	 0.000000	 0.000000	 0.207117
					}
				}
			}
		}
	}
	JOINT RightUpLeg
	{
		OFFSET	-0.124023	-0.008373	-0.065224
		CHANNELS 3 Zrotation Xrotation Yrotation
		JOINT RightLeg
		{
			OFFSET	 0.000000	 0.000000	 0.570047
			CHANNELS 3 Zrotation Xrotation Yrotation
			JOINT RightFoot
			{
				OFFSET	 0.000000	 0.000000	 0.544354
				CHANNELS 3 Zrotation Xrotation Yrotation
				JOINT RightToeBase
				{
					OFFSET	 0.000000	 0.000000	 0.207540
					CHANNELS 3 Zrotation Xrotation Yrotation
					End Site
					{
						OFFSET	 0.000000	 0.000000	 0.207540
					}
				}
			}
		}
	}
	JOINT Spine
	{
		OFFSET	 0.000184	-0.007763	 0.117403
		CHANNELS 3 Zrotation Xrotation Yrotation
		JOINT Spine1
		{
			OFFSET	 0.000000	 0.000000	 0.137269
			CHANNELS 3 Zrotation Xrotation Yrotation
			JOINT Spine2
			{
				OFFSET	 0.000000	 0.000000	 0.156879
				CHANNELS 3 Zrotation Xrotation Yrotation
				JOINT LeftShoulder
				{
					OFFSET	 0.080501	-0.002496	 0.160144
					CHANNELS 3 Zrotation Xrotation Yrotation
					JOINT LeftArm
					{
						OFFSET	 0.000000	 0.000000	 0.164363
						CHANNELS 3 Zrotation Xrotation Yrotation
						JOINT LeftForeArm
						{
							OFFSET	 0.000000	 0.000000	 0.364576
							CHANNELS 3 Zrotation Xrotation Yrotation
							JOINT LeftHand
							{
								OFFSET	 0.000000	 0.000000	 0.360812
								CHANNELS 3 Zrotation Xrotation Yrotation
								JOINT LeftHandIndex1
								{
									OFFSET	 0.000000	 0.000000	 0.086006
									CHANNELS 3 Zrotation Xrotation Yrotation
									JOINT LeftHandIndex2
									{
										OFFSET	 0.000000	 0.000000	 0.047236
										CHANNELS 3 Zrotation Xrotation Yrotation
										JOINT LeftHandIndex3
										{
											OFFSET	-0.004284	-0.000551	 0.038166
											CHANNELS 3 Zrotation Xrotation Yrotation
											End Site
											{
												OFFSET	-0.004284	-0.000551	 0.038166
											}
										}
									}
								}
							}
						}
					}
				}
				JOINT Neck
				{
					OFFSET	 0.000000	 0.000000	 0.176489
					CHANNELS 3 Zrotation Xrotation Yrotation
					JOINT Head
					{
						OFFSET	 0.000000	-0.001747	 0.077940
						CHANNELS 3 Zrotation Xrotation Yrotation
						End Site
						{
							OFFSET	 0.000000	-0.001747	 0.077940
						}
					}
				}
				JOINT RightShoulder
				{
					OFFSET	-0.080363	 0.000306	 0.159706
					CHANNELS 3 Zrotation Xrotation Yrotation
					JOINT RightArm
					{
						OFFSET	 0.000000	 0.000000	 0.164196
						CHANNELS 3 Zrotation Xrotation Yrotation
						JOINT RightForeArm
						{
							OFFSET	 0.000000	 0.000000	 0.365611
							CHANNELS 3 Zrotation Xrotation Yrotation
							JOINT RightHand
							{
								OFFSET	 0.000000	 0.000000	 0.360648
								CHANNELS 3 Zrotation Xrotation Yrotation
								JOINT RightHandIndex1
								{
									OFFSET	 0.000000	 0.000000	 0.069977
									CHANNELS 3 Zrotation Xrotation Yrotation
									JOINT RightHandIndex2
									{
										OFFSET	 0.000000	 0.000000	 0.052305
										CHANNELS 3 Zrotation Xrotation Yrotation
										JOINT RightHandIndex3
										{
											OFFSET	 0.009002	-0.000782	 0.042196
											CHANNELS 3 Zrotation Xrotation Yrotation
											End Site
											{
												OFFSET	 0.009002	-0.000782	 0.042196
											}
										}
									}
								}
							}
						}
					}
				}
			}
		}
	}
}
MOTION
Frames:    7
Frame Time: 0.03333334
-0.000341	 0.047429	 1.276475	-0.066713	 2.933171	 0.542460	 6.698730	-6.429996	 177.910200	 2.174001	-12.724730	 0.570980	-0.164162	 70.235950	 0.101834	-2.385833	 28.452750	 0.000004	 0.781597	-5.883475	-178.197900	-0.780865	-11.133260	 0.844498	 5.126914	 69.272450	 1.193707	 2.384659	 28.388700	-0.000001	-10.499880	 7.078351	 1.250493	-2.617396	-4.487347	-0.128116	 8.055123	 8.299212	-0.740031	-91.043470	 68.942710	-177.544100	-7.958914	 4.194232	-29.182210	 22.269300	 0.035583	-2.610480	-13.385580	-34.827110	-7.504870	-2.027600	 6.559038	 9.033609	-5.188889	 0.308190	 3.541030	-5.234859	 0.342567	 0.430617	 4.637999	 19.994680	-7.390400	 3.184312	-14.725750	 2.189877	 88.842680	 67.521260	 177.026800	 7.812720	 9.986065	 3.923694	-21.130000	-10.772770	 40.520210	 11.068610	-34.340890	 9.161495	 1.803333	 3.979147	-15.098590	 4.898592	 3.004813	-9.310344	 5.224449	 0.395017	 2.014677
-0.000759	 0.051643	 1.276358	-0.020434	 3.542078	 0.601078	 6.719060	-7.523319	 177.899700	 2.163024	-13.108040	 0.585388	 0.149886	 70.078280	-0.229923	-2.385833	 28.452750	 0.000004	 0.602911	-6.880782	-178.278000	-0.771873	-11.359130	 0.863185	 4.809719	 69.031490	 1.541005	 2.384659	 28.388700	-0.000001	-12.941710	 7.504991	 1.320993	-2.670932	-5.118712	-0.119700	 8.101530	 9.530989	-0.901947	-90.950920	 68.302180	-177.357000	-6.904712	 5.552621	-31.528360	 20.215030	 0.206528	-3.595849	-15.178840	-38.731850	-9.846910	-2.027600	 6.559038	 9.033609	-5.188889	 0.308190	 3.541030	-5.234859	 0.342567	 0.430617	 4.707393	 21.882300	-7.950230	 3.495534	-16.138210	 2.278364	 88.678240	 66.370430	 176.742900	 6.558154	 11.459670	 5.439486	-19.908340	-9.542557	 41.507180	 12.297400	-37.783970	 10.641640	 1.803333	 3.979147	-15.098590	 4.898592	 3.004813	-9.310344	 5.224449	 0.395017	 2.014677
-0.001594	 0.060056	 1.275782	 0.069685	 4.710654	 0.704059	 6.710916	-9.811833	 177.894100	 2.202626	-14.201770	 0.638337	 0.725649	 69.985070	-0.911661	-2.385833	 28.452760	 0.000004	 0.250195	-9.012065	-178.454300	-0.815547	-12.186170	 0.915837	 4.312285	 68.764070	 2.134784	 2.384659	 28.388700	-0.000001	-16.922300	 8.241949	 1.425708	-2.684717	-5.273710	 0.030236	 8.103274	 11.113410	-1.178409	-90.824230	 67.217730	-177.155500	-5.290998	 7.770710	-35.850380	 16.529820	 0.628971	-5.254426	-19.454280	-44.602020	-15.110660	-2.027600	 6.559038	 9.033609	-5.188889	 0.308190	 3.541030	-5.234859	 0.342567	 0.430617	 4.710798	 24.774810	-8.732865	 4.041842	-18.367380	 2.434371	 88.424610	 64.369560	 176.384600	 4.188456	 13.808650	 8.537063	-17.804740	-7.253429	 43.039760	 14.935780	-43.009460	 14.056770	 1.803333	 3.979147	-15.098590	 4.898592	 3.004813	-9.310344	 5.224449	 0.395017	 2.014677
-0.002490	 0.070096	 1.275906	 0.185015	 6.230009	 0.800466	 6.620837	-12.385540	 177.944800	 2.166860	-14.881360	 0.663886	 1.504931	 69.582910	-1.785909	-2.385832	 28.452790	-0.000001	-0.201890	-11.359520	-178.641300	-1.223014	-12.413360	 0.844616	 3.877924	 68.110790	 3.059718	 2.384659	 28.388700	-0.000001	-20.517220	 8.932572	 1.486364	-2.591815	-4.664364	 0.323632	 7.917378	 12.095330	-1.493301	-90.838390	 65.770310	-177.412900	-3.854343	 9.003483	-39.938920	 11.854050	 1.206982	-6.837947	-25.949330	-48.786800	-21.993390	-2.027600	 6.559038	 9.033609	-5.188889	 0.308190	 3.541030	-5.234859	 0.342567	 0.430617	 4.326451	 26.305990	-8.823333	 4.382544	-19.687740	 2.358613	 88.387500	 62.217490	 176.605300	 1.307735	 14.848420	 11.362130	-15.258350	-4.632474	 45.328970	 18.445520	-46.758870	 18.756790	 1.803333	 3.979147	-15.098590	 4.898592	 3.004813	-9.310344	 5.224449	 0.395017	 2.014677
-0.003062	 0.082034	 1.275553	 0.441829	 8.139660	 0.822465	 6.362880	-15.612780	 178.125100	 2.082984	-15.820580	 0.681835	 2.530233	 68.974530	-2.886586	-2.385833	 28.452760	 0.000004	-0.714103	-14.434480	-178.794900	-1.437031	-13.066740	 0.839725	 3.270442	 67.520730	 3.985365	 2.384659	 28.388700	-0.000001	-23.818080	 9.493193	 1.483493	-2.455273	-4.037877	 0.599166	 7.645817	 12.672190	-1.661921	-91.335410	 65.031940	-178.827200	-2.542237	 10.845290	-42.697280	 7.943917	 1.907809	-8.329519	-32.580390	-50.808720	-28.949290	-2.027600	 6.559038	 9.033609	-5.188889	 0.308190	 3.541030	-5.234859	 0.342567	 0.430617	 3.861525	 26.849640	-8.769113	 4.607747	-20.426470	 2.323345	 88.840440	 61.208410	 177.790000	-1.960373	 16.887230	 13.512850	-13.137830	-2.066887	 47.149780	 22.023970	-49.140030	 23.567970	 1.803333	 3.979147	-15.098590	 4.898592	 3.004813	-9.310344	 5.224449	 0.395017	 2.014677
-0.003969	 0.094081	 1.274499	 0.674364	 10.249320	 0.798544	 6.091118	-19.198190	 178.326100	 2.053424	-17.222990	 0.731749	 3.601337	 68.707920	-4.109506	-2.385833	 28.452760	 0.000004	-1.123399	-18.021960	-178.938000	-1.611176	-14.540960	 0.888623	 2.706222	 67.500240	 4.843328	 2.384659	 28.388700	-0.000001	-26.693300	 10.014020	 1.494862	-2.276365	-3.166609	 0.828793	 7.344479	 12.848770	-1.638141	-92.035800	 64.894230	 179.313400	-1.776387	 12.559220	-44.488360	 5.050622	 2.692360	-9.693730	-37.631050	-51.237840	-34.392240	-2.027600	 6.559038	 9.033609	-5.188889	 0.308190	 3.541030	-5.234859	 0.342567	 0.430617	 3.415133	 26.300150	-8.847608	 4.720269	-20.535720	 2.224885	 89.509570	 60.606190	 179.373200	-5.116489	 18.985060	 15.740770	-11.081090	 0.599807	 48.785580	 25.449660	-50.198670	 27.820930	 1.803333	 3.979147	-15.098590	 4.898592	 3.004813	-9.310344	 5.224449	 0.395017	 2.014677
-0.005875	 0.107252	 1.273313	 1.133003	 13.271900	 0.809587	 5.469590	-23.860780	 178.404900	 2.292727	-19.067020	 0.885642	 4.603852	 68.730170	-5.564445	-2.385832	 28.452790	-0.000001	-1.769929	-22.600730	-179.214500	-1.635164	-16.562630	 1.002045	 1.673802	 67.862530	 6.081270	 2.384659	 28.388700	-0.000001	-29.502120	 10.379690	 1.472427	-2.141404	-1.465099	 1.066303	 6.905672	 12.192280	-1.524561	-92.898130	 65.185140	 176.993100	-1.439055	 13.797800	-45.559320	 2.715538	 3.656814	-11.090090	-40.574670	-50.222750	-37.842610	-2.027600	 6.559038	 9.033609	-5.188889	 0.308190	 3.541030	-5.234859	 0.342567	 0.430617	 2.970017	 24.949540	-8.909997	 4.722369	-20.288010	 2.028165	 90.409330	 60.321970	-178.571000	-8.650402	 21.287760	 18.490010	-8.834246	 3.719991	 51.291420	 28.457690	-49.791700	 31.226560	 1.803333	 3.979147	-15.098590	 4.898592	 3.004813	-9.310344	 5.224449	 0.395017	 2.014677
